G04 EAGLE Gerber RS-274X export*
G75*
%MOMM*%
%FSLAX34Y34*%
%LPD*%
%INTop Copper*%
%IPPOS*%
%AMOC8*
5,1,8,0,0,1.08239X$1,22.5*%
G01*
%ADD10C,1.270000*%
%ADD11C,1.676400*%
%ADD12R,1.500000X1.600000*%
%ADD13C,1.016000*%
%ADD14C,0.406400*%
%ADD15C,0.508000*%
%ADD16C,0.500000*%

G36*
X720020Y299242D02*
X720020Y299242D01*
X720039Y299240D01*
X720141Y299262D01*
X720243Y299279D01*
X720260Y299288D01*
X720280Y299292D01*
X720369Y299345D01*
X720460Y299394D01*
X720474Y299408D01*
X720491Y299418D01*
X720558Y299497D01*
X720630Y299572D01*
X720638Y299590D01*
X720651Y299605D01*
X720690Y299701D01*
X720733Y299795D01*
X720735Y299815D01*
X720743Y299833D01*
X720761Y300000D01*
X720761Y780000D01*
X720758Y780020D01*
X720760Y780039D01*
X720738Y780141D01*
X720722Y780243D01*
X720712Y780260D01*
X720708Y780280D01*
X720655Y780369D01*
X720606Y780460D01*
X720592Y780474D01*
X720582Y780491D01*
X720503Y780558D01*
X720428Y780630D01*
X720410Y780638D01*
X720395Y780651D01*
X720299Y780690D01*
X720205Y780733D01*
X720185Y780735D01*
X720167Y780743D01*
X720000Y780761D01*
X400000Y780761D01*
X399980Y780758D01*
X399961Y780760D01*
X399859Y780738D01*
X399757Y780722D01*
X399740Y780712D01*
X399720Y780708D01*
X399631Y780655D01*
X399540Y780606D01*
X399526Y780592D01*
X399509Y780582D01*
X399442Y780503D01*
X399371Y780428D01*
X399362Y780410D01*
X399349Y780395D01*
X399310Y780299D01*
X399267Y780205D01*
X399265Y780185D01*
X399257Y780167D01*
X399239Y780000D01*
X399239Y300000D01*
X399242Y299980D01*
X399240Y299961D01*
X399262Y299859D01*
X399279Y299757D01*
X399288Y299740D01*
X399292Y299720D01*
X399345Y299631D01*
X399394Y299540D01*
X399408Y299526D01*
X399418Y299509D01*
X399497Y299442D01*
X399572Y299371D01*
X399590Y299362D01*
X399605Y299349D01*
X399701Y299310D01*
X399795Y299267D01*
X399815Y299265D01*
X399833Y299257D01*
X400000Y299239D01*
X720000Y299239D01*
X720020Y299242D01*
G37*
%LPC*%
G36*
X469585Y498999D02*
X469585Y498999D01*
X468999Y499585D01*
X468999Y610415D01*
X469585Y611001D01*
X500415Y611001D01*
X501001Y610415D01*
X501001Y499585D01*
X500415Y498999D01*
X469585Y498999D01*
G37*
%LPD*%
%LPC*%
G36*
X587120Y335521D02*
X587120Y335521D01*
X581798Y337726D01*
X577726Y341798D01*
X575521Y347120D01*
X575521Y352880D01*
X577726Y358202D01*
X581798Y362274D01*
X587120Y364479D01*
X592880Y364479D01*
X598202Y362274D01*
X598593Y361883D01*
X598609Y361872D01*
X598621Y361856D01*
X598682Y361817D01*
X598735Y361772D01*
X598765Y361760D01*
X598792Y361740D01*
X598811Y361734D01*
X598828Y361723D01*
X598901Y361705D01*
X598963Y361680D01*
X599001Y361676D01*
X599027Y361667D01*
X599047Y361668D01*
X599067Y361663D01*
X599094Y361665D01*
X599130Y361661D01*
X599132Y361661D01*
X599197Y361672D01*
X599273Y361674D01*
X599292Y361681D01*
X599312Y361682D01*
X599344Y361696D01*
X599375Y361701D01*
X599434Y361733D01*
X599504Y361758D01*
X599520Y361771D01*
X599538Y361779D01*
X599572Y361805D01*
X599592Y361816D01*
X599613Y361839D01*
X599669Y361883D01*
X635946Y398160D01*
X635987Y398218D01*
X636037Y398270D01*
X636059Y398317D01*
X636089Y398359D01*
X636110Y398428D01*
X636140Y398493D01*
X636146Y398545D01*
X636161Y398595D01*
X636160Y398666D01*
X636167Y398737D01*
X636156Y398788D01*
X636155Y398840D01*
X636130Y398908D01*
X636115Y398978D01*
X636089Y399022D01*
X636071Y399071D01*
X636026Y399127D01*
X635989Y399189D01*
X635949Y399223D01*
X635917Y399263D01*
X635857Y399302D01*
X635802Y399349D01*
X635754Y399368D01*
X635710Y399396D01*
X635641Y399414D01*
X635574Y399441D01*
X635503Y399449D01*
X635471Y399457D01*
X635448Y399455D01*
X635407Y399459D01*
X631523Y399459D01*
X631523Y408477D01*
X640041Y408477D01*
X640041Y404093D01*
X640052Y404022D01*
X640054Y403950D01*
X640072Y403901D01*
X640080Y403850D01*
X640114Y403787D01*
X640139Y403719D01*
X640171Y403679D01*
X640196Y403633D01*
X640247Y403583D01*
X640292Y403527D01*
X640336Y403499D01*
X640374Y403463D01*
X640439Y403433D01*
X640499Y403394D01*
X640550Y403382D01*
X640597Y403360D01*
X640668Y403352D01*
X640738Y403334D01*
X640790Y403338D01*
X640841Y403333D01*
X640912Y403348D01*
X640983Y403353D01*
X641031Y403374D01*
X641082Y403385D01*
X641143Y403422D01*
X641209Y403450D01*
X641265Y403494D01*
X641293Y403511D01*
X641308Y403529D01*
X641340Y403554D01*
X646180Y408394D01*
X646233Y408468D01*
X646293Y408538D01*
X646305Y408568D01*
X646324Y408594D01*
X646351Y408681D01*
X646385Y408766D01*
X646389Y408807D01*
X646396Y408829D01*
X646395Y408861D01*
X646403Y408933D01*
X646403Y419213D01*
X647331Y421454D01*
X649046Y423169D01*
X651401Y424144D01*
X651491Y424200D01*
X651565Y424239D01*
X651576Y424251D01*
X651601Y424265D01*
X651605Y424270D01*
X651610Y424274D01*
X651685Y424364D01*
X651698Y424379D01*
X651734Y424417D01*
X651738Y424426D01*
X651761Y424452D01*
X651763Y424458D01*
X651767Y424463D01*
X651809Y424571D01*
X651828Y424619D01*
X651838Y424640D01*
X651838Y424644D01*
X651853Y424681D01*
X651854Y424688D01*
X651855Y424693D01*
X651856Y424711D01*
X651871Y424847D01*
X651871Y425153D01*
X651852Y425268D01*
X651835Y425384D01*
X651833Y425389D01*
X651832Y425395D01*
X651777Y425498D01*
X651724Y425603D01*
X651719Y425607D01*
X651716Y425613D01*
X651632Y425693D01*
X651548Y425775D01*
X651542Y425779D01*
X651538Y425782D01*
X651521Y425790D01*
X651401Y425856D01*
X649046Y426831D01*
X647331Y428546D01*
X646403Y430787D01*
X646403Y449213D01*
X647331Y451454D01*
X649046Y453169D01*
X651287Y454097D01*
X668713Y454097D01*
X670954Y453169D01*
X672669Y451454D01*
X673597Y449213D01*
X673597Y430787D01*
X672669Y428546D01*
X670954Y426831D01*
X668599Y425856D01*
X668499Y425795D01*
X668399Y425735D01*
X668395Y425730D01*
X668390Y425726D01*
X668315Y425636D01*
X668239Y425548D01*
X668237Y425542D01*
X668233Y425537D01*
X668191Y425428D01*
X668147Y425319D01*
X668146Y425312D01*
X668145Y425307D01*
X668144Y425289D01*
X668129Y425153D01*
X668129Y424847D01*
X668135Y424807D01*
X668135Y424806D01*
X668137Y424799D01*
X668148Y424732D01*
X668165Y424616D01*
X668167Y424611D01*
X668168Y424605D01*
X668186Y424571D01*
X668187Y424565D01*
X668204Y424538D01*
X668223Y424502D01*
X668276Y424397D01*
X668281Y424393D01*
X668284Y424387D01*
X668307Y424364D01*
X668314Y424354D01*
X668361Y424313D01*
X668368Y424307D01*
X668452Y424225D01*
X668458Y424221D01*
X668462Y424218D01*
X668479Y424210D01*
X668488Y424205D01*
X668501Y424194D01*
X668526Y424184D01*
X668599Y424144D01*
X670954Y423169D01*
X672669Y421454D01*
X673597Y419213D01*
X673597Y400787D01*
X672669Y398546D01*
X670954Y396831D01*
X668713Y395903D01*
X658433Y395903D01*
X658343Y395889D01*
X658252Y395881D01*
X658222Y395869D01*
X658190Y395864D01*
X658109Y395821D01*
X658025Y395785D01*
X657993Y395759D01*
X657973Y395748D01*
X657950Y395725D01*
X657894Y395680D01*
X604892Y342678D01*
X602065Y341507D01*
X602009Y341472D01*
X601949Y341447D01*
X601884Y341395D01*
X601856Y341377D01*
X601843Y341362D01*
X601818Y341342D01*
X598202Y337726D01*
X592880Y335521D01*
X587120Y335521D01*
G37*
%LPD*%
%LPC*%
G36*
X527120Y335521D02*
X527120Y335521D01*
X521798Y337726D01*
X517726Y341798D01*
X515521Y347120D01*
X515521Y351949D01*
X515507Y352039D01*
X515499Y352130D01*
X515487Y352160D01*
X515482Y352192D01*
X515439Y352273D01*
X515403Y352357D01*
X515377Y352389D01*
X515366Y352409D01*
X515343Y352432D01*
X515298Y352487D01*
X464882Y402904D01*
X464850Y402927D01*
X464825Y402955D01*
X464684Y403047D01*
X464626Y403076D01*
X464093Y403690D01*
X464078Y403703D01*
X464056Y403730D01*
X462678Y405108D01*
X462556Y405403D01*
X462536Y405436D01*
X462523Y405472D01*
X462428Y405610D01*
X462385Y405659D01*
X462128Y406431D01*
X462118Y406449D01*
X462109Y406482D01*
X461363Y408282D01*
X461363Y408601D01*
X461357Y408640D01*
X461359Y408678D01*
X461324Y408842D01*
X455811Y425383D01*
X455801Y425401D01*
X455796Y425422D01*
X455744Y425510D01*
X455696Y425600D01*
X455681Y425615D01*
X455670Y425633D01*
X455592Y425700D01*
X455518Y425770D01*
X455499Y425779D01*
X455483Y425793D01*
X455388Y425831D01*
X455296Y425875D01*
X455275Y425877D01*
X455255Y425885D01*
X455088Y425903D01*
X451287Y425903D01*
X449046Y426831D01*
X447331Y428546D01*
X446403Y430787D01*
X446403Y449213D01*
X447331Y451454D01*
X449046Y453169D01*
X451287Y454097D01*
X468713Y454097D01*
X470954Y453169D01*
X472669Y451454D01*
X473597Y449213D01*
X473597Y430787D01*
X472894Y429091D01*
X472879Y429029D01*
X472855Y428969D01*
X472852Y428910D01*
X472838Y428852D01*
X472844Y428788D01*
X472840Y428723D01*
X472858Y428640D01*
X472861Y428607D01*
X472869Y428590D01*
X472875Y428559D01*
X477429Y414899D01*
X477472Y414817D01*
X477508Y414733D01*
X477533Y414702D01*
X477543Y414681D01*
X477567Y414659D01*
X477613Y414602D01*
X527513Y364702D01*
X527586Y364649D01*
X527656Y364589D01*
X527686Y364577D01*
X527712Y364558D01*
X527799Y364531D01*
X527884Y364497D01*
X527925Y364493D01*
X527947Y364486D01*
X527980Y364487D01*
X528051Y364479D01*
X532880Y364479D01*
X538202Y362274D01*
X542274Y358202D01*
X544479Y352880D01*
X544479Y347120D01*
X542274Y341798D01*
X538202Y337726D01*
X532880Y335521D01*
X527120Y335521D01*
G37*
%LPD*%
%LPC*%
G36*
X521287Y655903D02*
X521287Y655903D01*
X519046Y656831D01*
X517331Y658546D01*
X516359Y660893D01*
X516298Y660993D01*
X516238Y661093D01*
X516233Y661097D01*
X516230Y661102D01*
X516140Y661177D01*
X516051Y661253D01*
X516045Y661255D01*
X516040Y661259D01*
X515932Y661301D01*
X515823Y661345D01*
X515815Y661346D01*
X515811Y661347D01*
X515792Y661348D01*
X515656Y661363D01*
X457485Y661363D01*
X457395Y661349D01*
X457304Y661341D01*
X457274Y661329D01*
X457242Y661324D01*
X457161Y661281D01*
X457078Y661245D01*
X457045Y661219D01*
X457025Y661208D01*
X457003Y661185D01*
X456947Y661140D01*
X456331Y660525D01*
X452223Y658823D01*
X447777Y658823D01*
X443669Y660525D01*
X440525Y663669D01*
X438823Y667777D01*
X438823Y672223D01*
X440525Y676331D01*
X443669Y679475D01*
X447777Y681177D01*
X452223Y681177D01*
X456331Y679475D01*
X456947Y678860D01*
X457021Y678807D01*
X457090Y678747D01*
X457120Y678735D01*
X457146Y678716D01*
X457233Y678689D01*
X457318Y678655D01*
X457359Y678651D01*
X457381Y678644D01*
X457414Y678645D01*
X457485Y678637D01*
X515656Y678637D01*
X515771Y678656D01*
X515887Y678673D01*
X515893Y678675D01*
X515899Y678676D01*
X516001Y678731D01*
X516106Y678784D01*
X516111Y678789D01*
X516116Y678792D01*
X516196Y678876D01*
X516278Y678960D01*
X516282Y678966D01*
X516286Y678970D01*
X516293Y678987D01*
X516359Y679107D01*
X517331Y681454D01*
X519046Y683169D01*
X521287Y684097D01*
X538713Y684097D01*
X540954Y683169D01*
X542669Y681454D01*
X543597Y679213D01*
X543597Y660787D01*
X542669Y658546D01*
X540954Y656831D01*
X538713Y655903D01*
X521287Y655903D01*
G37*
%LPD*%
%LPC*%
G36*
X622524Y507553D02*
X622524Y507553D01*
X617949Y509448D01*
X614448Y512949D01*
X612553Y517524D01*
X612553Y522476D01*
X614448Y527051D01*
X617949Y530552D01*
X620955Y531797D01*
X621016Y531835D01*
X621081Y531864D01*
X621120Y531899D01*
X621164Y531926D01*
X621210Y531982D01*
X621262Y532030D01*
X621288Y532076D01*
X621321Y532116D01*
X621346Y532183D01*
X621381Y532246D01*
X621390Y532297D01*
X621409Y532345D01*
X621412Y532417D01*
X621425Y532488D01*
X621417Y532539D01*
X621419Y532591D01*
X621399Y532660D01*
X621389Y532731D01*
X621365Y532777D01*
X621351Y532827D01*
X621310Y532886D01*
X621277Y532950D01*
X621240Y532987D01*
X621211Y533029D01*
X621153Y533072D01*
X621102Y533122D01*
X621039Y533157D01*
X621013Y533176D01*
X620991Y533183D01*
X620955Y533203D01*
X617949Y534448D01*
X614448Y537949D01*
X612553Y542524D01*
X612553Y547476D01*
X614448Y552051D01*
X617949Y555552D01*
X622524Y557447D01*
X627476Y557447D01*
X632051Y555552D01*
X635552Y552051D01*
X637447Y547476D01*
X637447Y542524D01*
X635552Y537949D01*
X632051Y534448D01*
X629045Y533203D01*
X628984Y533165D01*
X628919Y533136D01*
X628880Y533101D01*
X628836Y533074D01*
X628790Y533018D01*
X628738Y532970D01*
X628712Y532924D01*
X628679Y532884D01*
X628654Y532817D01*
X628619Y532754D01*
X628610Y532703D01*
X628591Y532655D01*
X628588Y532583D01*
X628575Y532512D01*
X628583Y532461D01*
X628581Y532409D01*
X628601Y532340D01*
X628611Y532269D01*
X628635Y532223D01*
X628649Y532173D01*
X628690Y532114D01*
X628723Y532050D01*
X628760Y532013D01*
X628789Y531971D01*
X628847Y531928D01*
X628898Y531878D01*
X628961Y531843D01*
X628987Y531824D01*
X629009Y531817D01*
X629045Y531797D01*
X632051Y530552D01*
X635552Y527051D01*
X637447Y522476D01*
X637447Y517524D01*
X635552Y512949D01*
X632051Y509448D01*
X627476Y507553D01*
X622524Y507553D01*
G37*
%LPD*%
%LPC*%
G36*
X622524Y582553D02*
X622524Y582553D01*
X617949Y584448D01*
X614448Y587949D01*
X612553Y592524D01*
X612553Y597476D01*
X614448Y602051D01*
X617949Y605552D01*
X622524Y607447D01*
X627476Y607447D01*
X632051Y605552D01*
X635552Y602051D01*
X637447Y597476D01*
X637447Y592524D01*
X635552Y587949D01*
X632051Y584448D01*
X627476Y582553D01*
X622524Y582553D01*
G37*
%LPD*%
%LPC*%
G36*
X447777Y698823D02*
X447777Y698823D01*
X443669Y700525D01*
X440525Y703669D01*
X438823Y707777D01*
X438823Y712223D01*
X440525Y716331D01*
X443669Y719475D01*
X447777Y721177D01*
X452223Y721177D01*
X456331Y719475D01*
X459475Y716331D01*
X461177Y712223D01*
X461177Y707777D01*
X459475Y703669D01*
X456331Y700525D01*
X452223Y698823D01*
X447777Y698823D01*
G37*
%LPD*%
%LPC*%
G36*
X561523Y671523D02*
X561523Y671523D01*
X561523Y680541D01*
X567834Y680541D01*
X568481Y680368D01*
X569060Y680033D01*
X569533Y679560D01*
X569868Y678981D01*
X570041Y678334D01*
X570041Y671523D01*
X561523Y671523D01*
G37*
%LPD*%
%LPC*%
G36*
X631523Y441523D02*
X631523Y441523D01*
X631523Y450541D01*
X637834Y450541D01*
X638481Y450368D01*
X639060Y450033D01*
X639533Y449560D01*
X639868Y448981D01*
X640041Y448334D01*
X640041Y441523D01*
X631523Y441523D01*
G37*
%LPD*%
%LPC*%
G36*
X491523Y441523D02*
X491523Y441523D01*
X491523Y450541D01*
X497834Y450541D01*
X498481Y450368D01*
X499060Y450033D01*
X499533Y449560D01*
X499868Y448981D01*
X500041Y448334D01*
X500041Y441523D01*
X491523Y441523D01*
G37*
%LPD*%
%LPC*%
G36*
X631523Y411523D02*
X631523Y411523D01*
X631523Y420541D01*
X637834Y420541D01*
X638481Y420368D01*
X639060Y420033D01*
X639533Y419560D01*
X639868Y418981D01*
X640041Y418334D01*
X640041Y411523D01*
X631523Y411523D01*
G37*
%LPD*%
%LPC*%
G36*
X561523Y659459D02*
X561523Y659459D01*
X561523Y668477D01*
X570041Y668477D01*
X570041Y661666D01*
X569868Y661019D01*
X569533Y660440D01*
X569060Y659967D01*
X568481Y659632D01*
X567834Y659459D01*
X561523Y659459D01*
G37*
%LPD*%
%LPC*%
G36*
X631523Y429459D02*
X631523Y429459D01*
X631523Y438477D01*
X640041Y438477D01*
X640041Y431666D01*
X639868Y431019D01*
X639533Y430440D01*
X639060Y429967D01*
X638481Y429632D01*
X637834Y429459D01*
X631523Y429459D01*
G37*
%LPD*%
%LPC*%
G36*
X491523Y429459D02*
X491523Y429459D01*
X491523Y438477D01*
X500041Y438477D01*
X500041Y431666D01*
X499868Y431019D01*
X499533Y430440D01*
X499060Y429967D01*
X498481Y429632D01*
X497834Y429459D01*
X491523Y429459D01*
G37*
%LPD*%
%LPC*%
G36*
X549959Y671523D02*
X549959Y671523D01*
X549959Y678334D01*
X550132Y678981D01*
X550467Y679560D01*
X550940Y680033D01*
X551519Y680368D01*
X552166Y680541D01*
X558477Y680541D01*
X558477Y671523D01*
X549959Y671523D01*
G37*
%LPD*%
%LPC*%
G36*
X479959Y441523D02*
X479959Y441523D01*
X479959Y448334D01*
X480132Y448981D01*
X480467Y449560D01*
X480940Y450033D01*
X481519Y450368D01*
X482166Y450541D01*
X488477Y450541D01*
X488477Y441523D01*
X479959Y441523D01*
G37*
%LPD*%
%LPC*%
G36*
X619959Y441523D02*
X619959Y441523D01*
X619959Y448334D01*
X620132Y448981D01*
X620467Y449560D01*
X620940Y450033D01*
X621519Y450368D01*
X622166Y450541D01*
X628477Y450541D01*
X628477Y441523D01*
X619959Y441523D01*
G37*
%LPD*%
%LPC*%
G36*
X619959Y411523D02*
X619959Y411523D01*
X619959Y418334D01*
X620132Y418981D01*
X620467Y419560D01*
X620940Y420033D01*
X621519Y420368D01*
X622166Y420541D01*
X628477Y420541D01*
X628477Y411523D01*
X619959Y411523D01*
G37*
%LPD*%
%LPC*%
G36*
X552166Y659459D02*
X552166Y659459D01*
X551519Y659632D01*
X550940Y659967D01*
X550467Y660440D01*
X550132Y661019D01*
X549959Y661666D01*
X549959Y668477D01*
X558477Y668477D01*
X558477Y659459D01*
X552166Y659459D01*
G37*
%LPD*%
%LPC*%
G36*
X622166Y429459D02*
X622166Y429459D01*
X621519Y429632D01*
X620940Y429967D01*
X620467Y430440D01*
X620132Y431019D01*
X619959Y431666D01*
X619959Y438477D01*
X628477Y438477D01*
X628477Y429459D01*
X622166Y429459D01*
G37*
%LPD*%
%LPC*%
G36*
X482166Y429459D02*
X482166Y429459D01*
X481519Y429632D01*
X480940Y429967D01*
X480467Y430440D01*
X480132Y431019D01*
X479959Y431666D01*
X479959Y438477D01*
X488477Y438477D01*
X488477Y429459D01*
X482166Y429459D01*
G37*
%LPD*%
%LPC*%
G36*
X622166Y399459D02*
X622166Y399459D01*
X621519Y399632D01*
X620940Y399967D01*
X620467Y400440D01*
X620132Y401019D01*
X619959Y401666D01*
X619959Y408477D01*
X628477Y408477D01*
X628477Y399459D01*
X622166Y399459D01*
G37*
%LPD*%
%LPC*%
G36*
X561523Y351523D02*
X561523Y351523D01*
X561523Y360818D01*
X562558Y360654D01*
X564193Y360122D01*
X565725Y359342D01*
X567116Y358331D01*
X568331Y357116D01*
X569342Y355725D01*
X570122Y354193D01*
X570654Y352558D01*
X570818Y351523D01*
X561523Y351523D01*
G37*
%LPD*%
%LPC*%
G36*
X549182Y351523D02*
X549182Y351523D01*
X549346Y352558D01*
X549878Y354193D01*
X550658Y355725D01*
X551669Y357116D01*
X552884Y358331D01*
X554275Y359342D01*
X555807Y360122D01*
X557442Y360654D01*
X558477Y360818D01*
X558477Y351523D01*
X549182Y351523D01*
G37*
%LPD*%
%LPC*%
G36*
X561523Y348477D02*
X561523Y348477D01*
X570818Y348477D01*
X570654Y347442D01*
X570122Y345807D01*
X569342Y344275D01*
X568331Y342884D01*
X567116Y341669D01*
X565725Y340658D01*
X564193Y339878D01*
X562558Y339346D01*
X561523Y339182D01*
X561523Y348477D01*
G37*
%LPD*%
%LPC*%
G36*
X557442Y339346D02*
X557442Y339346D01*
X555807Y339878D01*
X554275Y340658D01*
X552884Y341669D01*
X551669Y342884D01*
X550658Y344275D01*
X549878Y345807D01*
X549346Y347442D01*
X549182Y348477D01*
X558477Y348477D01*
X558477Y339182D01*
X557442Y339346D01*
G37*
%LPD*%
%LPC*%
G36*
X626523Y571523D02*
X626523Y571523D01*
X626523Y578762D01*
X627593Y578549D01*
X629211Y577879D01*
X630668Y576906D01*
X631906Y575668D01*
X632879Y574211D01*
X633549Y572593D01*
X633762Y571523D01*
X626523Y571523D01*
G37*
%LPD*%
%LPC*%
G36*
X616238Y571523D02*
X616238Y571523D01*
X616451Y572593D01*
X617121Y574211D01*
X618094Y575668D01*
X619332Y576906D01*
X620789Y577879D01*
X622407Y578549D01*
X623477Y578762D01*
X623477Y571523D01*
X616238Y571523D01*
G37*
%LPD*%
%LPC*%
G36*
X626523Y568477D02*
X626523Y568477D01*
X633762Y568477D01*
X633549Y567407D01*
X632879Y565789D01*
X631906Y564332D01*
X630668Y563094D01*
X629211Y562121D01*
X627593Y561451D01*
X626523Y561238D01*
X626523Y568477D01*
G37*
%LPD*%
%LPC*%
G36*
X622407Y561451D02*
X622407Y561451D01*
X620789Y562121D01*
X619332Y563094D01*
X618094Y564332D01*
X617121Y565789D01*
X616451Y567407D01*
X616238Y568477D01*
X623477Y568477D01*
X623477Y561238D01*
X622407Y561451D01*
G37*
%LPD*%
%LPC*%
G36*
X624999Y569999D02*
X624999Y569999D01*
X624999Y570001D01*
X625001Y570001D01*
X625001Y569999D01*
X624999Y569999D01*
G37*
%LPD*%
%LPC*%
G36*
X559999Y349999D02*
X559999Y349999D01*
X559999Y350001D01*
X560001Y350001D01*
X560001Y349999D01*
X559999Y349999D01*
G37*
%LPD*%
%LPC*%
G36*
X559999Y669999D02*
X559999Y669999D01*
X559999Y670001D01*
X560001Y670001D01*
X560001Y669999D01*
X559999Y669999D01*
G37*
%LPD*%
%LPC*%
G36*
X629999Y439999D02*
X629999Y439999D01*
X629999Y440001D01*
X630001Y440001D01*
X630001Y439999D01*
X629999Y439999D01*
G37*
%LPD*%
%LPC*%
G36*
X489999Y439999D02*
X489999Y439999D01*
X489999Y440001D01*
X490001Y440001D01*
X490001Y439999D01*
X489999Y439999D01*
G37*
%LPD*%
%LPC*%
G36*
X629999Y409999D02*
X629999Y409999D01*
X629999Y410001D01*
X630001Y410001D01*
X630001Y409999D01*
X629999Y409999D01*
G37*
%LPD*%
D10*
X625000Y520000D03*
X625000Y545000D03*
X625000Y570000D03*
X625000Y595000D03*
X485000Y595000D03*
X485000Y570000D03*
X485000Y545000D03*
X485000Y520000D03*
D11*
X530000Y350000D03*
X560000Y350000D03*
X590000Y350000D03*
D12*
X630000Y410000D03*
X660000Y410000D03*
X630000Y440000D03*
X660000Y440000D03*
X530000Y670000D03*
X560000Y670000D03*
D13*
X450000Y710000D03*
X450000Y670000D03*
D12*
X460000Y440000D03*
X490000Y440000D03*
D14*
X660000Y440000D02*
X660000Y410000D01*
D15*
X600000Y350000D01*
D14*
X590000Y350000D01*
D15*
X530000Y670000D02*
X450000Y670000D01*
D16*
X460000Y440000D02*
X470000Y410000D01*
D15*
X530000Y350000D01*
M02*
